<?xml version="1.0" encoding="UTF-8" standalone="no"?>
<!DOCTYPE svg PUBLIC "-//W3C//DTD SVG 1.1//EN" "http://www.w3.org/Graphics/SVG/1.1/DTD/svg11.dtd">
<svg version="1.1" xmlns="http://www.w3.org/2000/svg" xmlns:xlink="http://www.w3.org/1999/xlink" preserveAspectRatio="xMidYMid meet" viewBox="0 0 250 200" width="250" height="200"><defs><path d="M0 0L250 0L250 200L0 200L0 0Z" id="cy4EkgAEr"></path><linearGradient id="gradientd4PL7I3Bzv" gradientUnits="userSpaceOnUse" x1="125" y1="0" x2="125" y2="200"><stop style="stop-color: #b1e5f5;stop-opacity: 1" offset="0%"></stop><stop style="stop-color: #57839e;stop-opacity: 1" offset="100%"></stop></linearGradient><path d="M136.97 200C142.47 175.14 150.72 153.4 161.72 134.79C195.72 53.96 199.06 38.78 171.72 89.25C144.39 139.72 129.64 176.64 127.47 200C128.31 224.86 131.47 224.86 136.97 200Z" id="a29Z2V4mNw"></path><path d="M161.41 179.17C144.53 157.61 128.75 151.83 114.08 161.83C98.53 145.83 97.4 145.83 110.69 161.83C123.99 177.83 141.9 184.06 164.41 180.5" id="c9JxfEhD8"></path><path d="M190.97 54.54L197.97 58.79L208.47 58.79L204.72 66.75L208.47 72.04L208.47 76.29L207.47 80.88L210.22 82.79L208.47 87.23L186.47 93.93L172.72 92.29L169.47 87.23L162.22 82.09L155.97 74.98L155.97 65.25L162.22 61.04L170.22 55.29L177.89 52.04L193.47 52.04L190.97 54.54Z" id="b6Rf33ykQW"></path><path d="M185.56 85.75L196.89 82.09L206.56 85.75L215.89 95.25L224.22 98.45L220.56 98.45L217.22 105.83L212.56 111.17L204.89 111.17L198.89 109.83L183.89 105.83L175.22 94.16L175.22 90.63L185.56 85.75Z" id="aAzq6v6Gi"></path><path d="M51.97 108.63L37.17 123.43L34.57 122.43L35.77 119.83L29.77 114.96L29.77 112.43L26.77 110.83L27.57 108.03L29.77 106.03L28.37 104.43L24.97 101.03L24.97 97.4L26.17 95.25L24.97 92.88L26.77 90.63L56.5 98.03L51.97 108.63Z" id="c3uGF6BhYd"></path><path d="M57.77 97.2L52.17 102.43L48.77 103.83L43.37 104.43L38.37 103.83L37.57 102L35.37 100L31.37 96.31L27.77 94.16L26.77 91.83L23.77 88.63L24.97 86.63L20.57 82.83L22.77 78.13L22.77 74.03L27.77 70.03L30.77 72.23L36.37 74.98L39.75 74.03L45.77 75.7L48.77 78L53.77 82.09L61.77 88.63L57.77 97.2Z" id="aKhznQ5X"></path><path d="M95.88 120.5C108.9 152.06 113.46 178.56 109.55 200C99.4 218.11 96.88 218.11 101.97 200C107.06 181.89 102.48 155.39 88.25 120.5C80.31 88.94 82.85 88.94 95.88 120.5Z" id="czt9xuxJ"></path><path d="M162.04 75.7L79.54 88.13C145.54 72.18 174.95 68.04 167.79 75.7C160.62 83.36 150.86 83.36 138.5 75.7C122.36 81.04 121.35 80.25 135.49 73.32C149.62 66.39 160.39 66.39 167.79 73.32L162.04 75.7Z" id="d1uk91muMc"></path><path d="M109.55 200C110.74 175.03 107.31 148.68 99.24 120.96L106.13 118.96L113.5 122.96C110.17 137.63 110.17 151.96 113.5 165.96C116.83 179.96 117.31 191.31 114.92 200" id="i1kYvxUv70"></path><path d="M122.25 76.38C135.92 95.54 139 107.21 131.5 111.38C124 115.54 110.75 120.38 91.75 125.88C66.92 117.21 58.17 104.63 65.5 88.13C72.83 71.63 84.58 65.54 100.75 69.88L122.25 76.38Z" id="b4E72JoAD"></path><path d="M98.75 77.31C114.25 62.59 103.08 43.37 65.25 19.63C72.08 72.79 83.25 92.02 98.75 77.31Z" id="egfXXsFLz"></path><path d="M81.25 125.88C95.25 151.82 104.46 176.53 108.88 200C107.13 213.14 105.7 213.14 104.61 200C103.51 186.86 93.89 162.68 75.75 127.46C65.42 100.46 67.25 99.93 81.25 125.88Z" id="alY43Ud9y"></path><path d="M106.13 200C101.38 171.36 85.75 143.01 59.25 114.96L53.25 116.21C70.75 135.71 82.2 153.04 87.61 168.21C93.01 183.38 97.8 193.97 101.97 200C109.49 228.64 110.88 228.64 106.13 200Z" id="c2INMrUtDw"></path><path d="M137.6 70.13C115.87 63.29 109.75 64.63 119.25 74.13C128.75 83.63 139.33 87.21 151 84.88L137.6 70.13Z" id="a16EuTjTS8"></path><path d="M114.92 174.83C115.34 153.72 120.44 136.59 130.22 123.43C140 110.28 155.89 101.24 177.89 96.31L176.56 88.13C144.78 99.71 127.32 110.39 124.19 120.17C121.05 129.94 116.49 143.94 110.5 162.17L114.92 174.83Z" id="b2icow4BKC"></path><path d="M127.5 69.13C132.33 60.63 145 56.21 165.5 55.88C135.33 73.21 122.67 77.63 127.5 69.13Z" id="bBce58sVm"></path><path d="M105 64.88C117.33 67.87 124.25 52.96 125.75 20.13C99.58 46.96 92.67 61.88 105 64.88Z" id="nbsFnBlS6"></path><path d="M102.75 96.63L104 109.88L105.5 118.38L113.75 126.38L118.5 129.88L121.5 128.63L125.75 131.63L129 132.38L133.5 132.38L133.5 129.88L137.6 128.63L137.6 123.88L137.6 120.13L138.5 116.88L138.5 113.63L137.6 110.63L135.75 105.13L133.5 98.63L130.25 94.38L124.75 90.13L119.75 87.13L113.75 87.13L98.75 84.88L102.75 96.63Z" id="a1HO7DeP5B"></path><path d="M96.25 62.63C95.42 59.29 93.42 56.46 90.25 54.13L85.75 51.88L82 50.38L71.25 51.88L66 48.63L61.5 49.63L61.5 51.88L58.5 49.63L56.5 55.13L58.5 56.88L56.5 57.88L58.5 58.88L56.5 60.38L57.75 63.88L59.75 67.88L61.5 69.38L62.5 71.38L66 74.63L69.5 77.13L75 80.38L90.25 81.13L92.75 83.63L98.75 84.88C97.92 73.38 97.08 65.96 96.25 62.63Z" id="bE1hPoja5"></path><path d="M120.25 83.88C127.25 83.04 131.58 79.96 133.25 74.63C132.92 77.79 134.58 78.04 138.25 75.38C141.92 72.71 143.92 68.21 144.25 61.88L142.25 60.88L143 58.38L142.25 55.88L143 53.13L141 50.88L138.25 46.13L133.25 44.88L123.5 46.13L119.5 44.88L114.25 47.63L111.75 46.13L108 48.63L105 54.13L102.5 55.88L101 60.88L99.5 65.63L98.75 84.88C106.08 85.04 113.25 84.71 120.25 83.88Z" id="a3SCWUwgrk"></path><path d="M96.75 96.88L95 101.38L92 103.88L90.25 108.13L90.25 112.38L88.5 113.88L86.5 119.38L84 120.38L82.5 124.88L80.75 127.38L75.75 128.63L70.75 128.63L65.75 128.63L61.25 128.63L56.5 128.63L55.25 124.88L53 124.88L52 122.38L50 120.38L50 116.63L50 112.38L52 108.13L50.75 103.88L52 100L55.25 96.88L63.75 91.38L67.5 90.63L70.75 87.13L75 86.13L84.75 86.13L98.75 84.88L96.75 96.88Z" id="bLtVL1KMk"></path><path d="M95 89.13L88.75 91.38L70.75 97.63L61.75 97.63L55.75 97.63L50 97.63L39.75 94.88L45.5 92.88L51.75 87.88L56.5 86.13L61.75 84.88L66.5 82.88L70.75 80.88L74.38 80.88L80.5 80.88L85.5 80.88L91 82.13L98.75 84.88L95 89.13Z" id="bO0Oy6ZqY"></path><path d="M100.75 82.13L101.5 73.38L103.5 70.13L105 64.9L105 56.88L103.5 51.63L101.5 44.88L99.5 50.88L95.5 57.63L95.5 64.9L94.75 70.13L94.75 77.13L98.75 84.88L100.75 82.13Z" id="f180kuAy39"></path><path d="M101.5 86.38L107.75 87.13L115 90.63L123 90.63L132 90.63L138.5 84.88L132 84.88L128 83.13L120.5 80.88L113 78.13L106.75 79.38L98.75 84.88L101.5 86.38Z" id="b22QfGjozR"></path><path d="M100.75 88.38L102.5 93.38L103.25 97.63L103.25 104.38L100.75 112.63L98.75 119.63L96.25 125.13L96.25 133.38L93.75 128.63L93 117.63L91.75 111.13L93 100.88L98.75 84.88L100.75 88.38Z" id="a5ZaikfTj"></path><path d="M96.5 78L99.63 78L97.25 83.5L103 82.5L104 85L100.5 85.5L103 88.75L108 91.25L110.5 98.75L107.25 94.75L106.5 97L103 91.25L98.5 86.25L101.25 93.75L104.75 98.25L101.25 96.25L104 100L100.5 103.25L97.25 101.25L97.25 96.25L93.5 100.62L93.5 97L96.5 93.75L96.5 88.75L88.5 103.25L85.75 102L94.5 88.75L85.75 98.75L84 97L88.5 91.75L82.25 97L81.25 94.75L95.5 85.54L85.75 87L85.75 84.25L95.5 84.25L96.5 78Z" id="a1iraIJUYb"></path><path d="M88.25 85.75C88.25 87.06 87.07 88.13 85.63 88.13C84.18 88.13 83 87.06 83 85.75C83 84.44 84.18 83.38 85.63 83.38C87.07 83.38 88.25 84.44 88.25 85.75Z" id="c1386rfT2"></path><path d="M83.88 95.25C83.88 96.56 82.7 97.63 81.25 97.63C79.8 97.63 78.63 96.56 78.63 95.25C78.63 93.94 79.8 92.88 81.25 92.88C82.7 92.88 83.88 93.94 83.88 95.25Z" id="a1H89eraJe"></path><path d="M87.86 94.53C88.71 95.52 88.13 97.42 86.56 98.77C84.98 100.12 83.02 100.4 82.16 99.41C81.31 98.41 81.89 96.51 83.46 95.16C85.04 93.82 87 93.53 87.86 94.53Z" id="a5WIuqhxo"></path><path d="M89.26 104.43C89.26 105.76 88.31 106.85 87.14 106.85C85.96 106.85 85.01 105.76 85.01 104.43C85.01 103.09 85.96 102 87.14 102C88.31 102 89.26 103.09 89.26 104.43Z" id="aadktKiFU9"></path><path d="M107.11 95.76C107.75 96.9 107.82 98.08 107.28 98.38C106.74 98.68 105.78 98 105.14 96.85C104.5 95.71 104.43 94.53 104.97 94.23C105.51 93.93 106.47 94.61 107.11 95.76Z" id="gmRYTVgIt"></path><path d="M112.05 94.7C112.68 95.85 112.76 97.02 112.22 97.32C111.68 97.63 110.72 96.94 110.08 95.8C109.44 94.65 109.36 93.48 109.91 93.18C110.45 92.87 111.41 93.56 112.05 94.7Z" id="aa442R837"></path><path d="M99.45 77.56C99.16 78.84 98.43 79.76 97.82 79.62C97.22 79.48 96.97 78.33 97.26 77.05C97.56 75.78 98.29 74.85 98.89 74.99C99.5 75.13 99.75 76.28 99.45 77.56Z" id="bfJHopNqI"></path><path d="M104.47 82.83C105.1 83.97 105.18 85.15 104.64 85.45C104.1 85.75 103.14 85.07 102.5 83.92C101.86 82.78 101.79 81.6 102.33 81.3C102.87 81 103.83 81.68 104.47 82.83Z" id="azSdDo9By"></path><path d="" id="cplvqR1P"></path><path d="" id="aGk3mwCVT"></path><path d="M186.89 93.1L197.89 96.31L213.89 97.63L207.89 94.16L199.22 87.23L186.22 84.38L178.89 85.52L175.22 90.63L186.89 93.1Z" id="a1shYP6ise"></path><path d="M177.89 99.17L183.56 105.5L196.56 108.63L213.89 104.43L200.89 102L194.56 98.45L183.56 95.25L175.22 94.16L177.89 99.17Z" id="a17EWkqwze"></path><path d="M227.22 101.39L228.56 106.8L225.89 110.17L225.89 112.83L221.56 114.17L210.22 111.17L213.22 109.13L216.22 107.03L220.22 98.45L224.22 97.4L227.22 101.39Z" id="bQ3eBWDSt"></path><path d="M196.89 109.13L204.56 111.17L210.22 111.17L220.56 114.17L222.22 116.83L227.22 118.96L227.22 125.88L218.22 128.63L213.22 129.83L207.89 133.38L199.72 129.83L192.56 123.43L185.56 116.83L182.22 105.78L196.89 109.13Z" id="b3iKEm0Qh5"></path></defs><g><g><g><use xlink:href="#cy4EkgAEr" opacity="1" fill="url(#gradientd4PL7I3Bzv)"></use></g><g><use xlink:href="#a29Z2V4mNw" opacity="1" fill="#64373a" fill-opacity="1"></use></g><g><use xlink:href="#c9JxfEhD8" opacity="1" fill="#7d8358" fill-opacity="1"></use></g><g><use xlink:href="#b6Rf33ykQW" opacity="1" fill="#ad5bba" fill-opacity="1"></use></g><g><use xlink:href="#aAzq6v6Gi" opacity="1" fill="#c77cd1" fill-opacity="1"></use></g><g><use xlink:href="#c3uGF6BhYd" opacity="1" fill="#a463bd" fill-opacity="1"></use></g><g><use xlink:href="#aKhznQ5X" opacity="1" fill="#864db0" fill-opacity="1"></use></g><g><use xlink:href="#czt9xuxJ" opacity="1" fill="#4f2a31" fill-opacity="1"></use></g><g><use xlink:href="#d1uk91muMc" opacity="1" fill="#873f90" fill-opacity="1"></use></g><g><use xlink:href="#i1kYvxUv70" opacity="1" fill="#624c39" fill-opacity="1"></use></g><g><use xlink:href="#b4E72JoAD" opacity="1" fill="#537c21" fill-opacity="1"></use></g><g><use xlink:href="#egfXXsFLz" opacity="1" fill="#718f4c" fill-opacity="1"></use></g><g><use xlink:href="#alY43Ud9y" opacity="1" fill="#60363e" fill-opacity="1"></use></g><g><use xlink:href="#c2INMrUtDw" opacity="1" fill="#455e48" fill-opacity="1"></use></g><g><use xlink:href="#a16EuTjTS8" opacity="1" fill="#8c997a" fill-opacity="1"></use></g><g><use xlink:href="#b2icow4BKC" opacity="1" fill="#624d3a" fill-opacity="1"></use></g><g><use xlink:href="#bBce58sVm" opacity="1" fill="#7a8769" fill-opacity="1"></use></g><g><use xlink:href="#nbsFnBlS6" opacity="1" fill="#819667" fill-opacity="1"></use></g><g><use xlink:href="#a1HO7DeP5B" opacity="1" fill="#c882d4" fill-opacity="1"></use></g><g><use xlink:href="#bE1hPoja5" opacity="1" fill="#dca2e8" fill-opacity="1"></use></g><g><use xlink:href="#a3SCWUwgrk" opacity="1" fill="#ae62b8" fill-opacity="1"></use></g><g><use xlink:href="#bLtVL1KMk" opacity="1" fill="#d597e0" fill-opacity="1"></use></g><g><use xlink:href="#bO0Oy6ZqY" opacity="1" fill="#9f67a8" fill-opacity="1"></use></g><g><use xlink:href="#f180kuAy39" opacity="1" fill="#864990" fill-opacity="1"></use></g><g><use xlink:href="#b22QfGjozR" opacity="1" fill="#9449a1" fill-opacity="1"></use></g><g><use xlink:href="#a5ZaikfTj" opacity="1" fill="#74417d" fill-opacity="1"></use></g><g><use xlink:href="#a1iraIJUYb" opacity="1" fill="#e3bdea" fill-opacity="1"></use></g><g><use xlink:href="#c1386rfT2" opacity="1" fill="#503d53" fill-opacity="1"></use></g><g><use xlink:href="#a1H89eraJe" opacity="1" fill="#5d4460" fill-opacity="1"></use></g><g><use xlink:href="#a5WIuqhxo" opacity="1" fill="#1c151d" fill-opacity="1"></use></g><g><use xlink:href="#aadktKiFU9" opacity="1" fill="#0d090e" fill-opacity="1"></use></g><g><use xlink:href="#gmRYTVgIt" opacity="1" fill="#503d53" fill-opacity="1"></use></g><g><use xlink:href="#aa442R837" opacity="1" fill="#2c1d2f" fill-opacity="1"></use></g><g><use xlink:href="#bfJHopNqI" opacity="1" fill="#503d53" fill-opacity="1"></use></g><g><use xlink:href="#azSdDo9By" opacity="1" fill="#503d53" fill-opacity="1"></use></g><g><g><use xlink:href="#cplvqR1P" opacity="1" fill-opacity="0" stroke="#000000" stroke-width="1" stroke-opacity="1"></use></g></g><g><g><use xlink:href="#aGk3mwCVT" opacity="1" fill-opacity="0" stroke="#000000" stroke-width="1" stroke-opacity="1"></use></g></g><g><use xlink:href="#a1shYP6ise" opacity="1" fill="#ab6374" fill-opacity="1"></use></g><g><use xlink:href="#a17EWkqwze" opacity="1" fill="#ab6374" fill-opacity="1"></use></g><g><use xlink:href="#bQ3eBWDSt" opacity="1" fill="#c8b2cd" fill-opacity="1"></use></g><g><use xlink:href="#b3iKEm0Qh5" opacity="1" fill="#c79bd1" fill-opacity="1"></use></g></g></g></svg>